<svg width="85" height="85" viewBox="0 0 85 85" fill="none" xmlns="http://www.w3.org/2000/svg">
<rect width="85" height="85" fill="white"/>
<g opacity="0.9">
<path d="M41.2743 57.9175C49.3638 57.9175 55.9216 51.3632 55.9216 43.2781C55.9216 35.193 49.3638 28.6387 41.2743 28.6387C33.1848 28.6387 26.627 35.193 26.627 43.2781C26.627 51.3632 33.1848 57.9175 41.2743 57.9175Z" stroke="#208444" stroke-width="4" stroke-miterlimit="10"/>
<path d="M72.9846 70.4904C72.883 68.917 72.8975 67.3291 72.9846 65.7556C73.0354 64.7333 72.7307 64.407 71.6787 64.4287C68.4214 64.494 65.164 64.4505 61.5656 64.4505C61.9429 64.0082 62.1025 63.8052 62.2766 63.6166C67.2679 58.4033 70.0174 52.2473 70.547 45.011C71.6642 29.7117 58.6492 14.8403 43.3054 14.0427C27.287 13.2088 13.8439 24.6797 12.1536 40.6097C10.6083 55.1839 20.8955 68.8662 35.2817 71.52C37.4509 71.9188 39.6708 72.0131 41.869 71.9986C44.0672 71.9841 46.2871 71.8608 48.4926 71.8391C50.698 71.8173 52.9615 71.8391 55.196 71.8391C57.4304 71.8391 59.7157 71.8391 61.9791 71.8391C64.2426 71.8391 66.4988 71.8391 68.7623 71.8463C69.6982 71.8463 70.6413 71.8463 71.5772 71.8608C72.6581 71.8608 73.0644 71.6288 72.9918 70.4904H72.9846ZM41.5135 65.0813C29.5795 65.1393 19.9234 55.4377 19.9016 43.3651C19.8799 31.1909 29.3691 21.5691 41.3757 21.5908C53.0921 21.6126 62.6466 31.3649 62.6393 43.2998C62.6393 55.4304 53.3242 65.0233 41.5063 65.0813H41.5135Z" fill="#208444"/>
</g>
</svg>
