<svg id="visual" viewBox="0 0 1980 540" width="1980" height="540" xmlns="http://www.w3.org/2000/svg" xmlns:xlink="http://www.w3.org/1999/xlink" version="1.1"><rect x="0" y="0" width="1980" height="540" fill="#ffffff"></rect><path d="M0 353L47.2 353.8C94.3 354.7 188.7 356.3 283 353C377.3 349.7 471.7 341.3 566 334C660.3 326.7 754.7 320.3 848.8 327C943 333.7 1037 353.3 1131.2 361.5C1225.3 369.7 1319.7 366.3 1414 369C1508.3 371.7 1602.7 380.3 1697 372.8C1791.3 365.3 1885.7 341.7 1932.8 329.8L1980 318L1980 541L1932.8 541C1885.7 541 1791.3 541 1697 541C1602.7 541 1508.3 541 1414 541C1319.7 541 1225.3 541 1131.2 541C1037 541 943 541 848.8 541C754.7 541 660.3 541 566 541C471.7 541 377.3 541 283 541C188.7 541 94.3 541 47.2 541L0 541Z" fill="#d4f5d9"></path><path d="M0 382L47.2 384.3C94.3 386.7 188.7 391.3 283 388.3C377.3 385.3 471.7 374.7 566 371.8C660.3 369 754.7 374 848.8 385.2C943 396.3 1037 413.7 1131.2 416.7C1225.3 419.7 1319.7 408.3 1414 403.7C1508.3 399 1602.7 401 1697 401.8C1791.3 402.7 1885.7 402.3 1932.8 402.2L1980 402L1980 541L1932.8 541C1885.7 541 1791.3 541 1697 541C1602.7 541 1508.3 541 1414 541C1319.7 541 1225.3 541 1131.2 541C1037 541 943 541 848.8 541C754.7 541 660.3 541 566 541C471.7 541 377.3 541 283 541C188.7 541 94.3 541 47.2 541L0 541Z" fill="#aed9b4"></path><path d="M0 450L47.2 445.8C94.3 441.7 188.7 433.3 283 427C377.3 420.7 471.7 416.3 566 414.7C660.3 413 754.7 414 848.8 415.8C943 417.7 1037 420.3 1131.2 425C1225.3 429.7 1319.7 436.3 1414 437.3C1508.3 438.3 1602.7 433.7 1697 432.5C1791.3 431.3 1885.7 433.7 1932.8 434.8L1980 436L1980 541L1932.8 541C1885.7 541 1791.3 541 1697 541C1602.7 541 1508.3 541 1414 541C1319.7 541 1225.3 541 1131.2 541C1037 541 943 541 848.8 541C754.7 541 660.3 541 566 541C471.7 541 377.3 541 283 541C188.7 541 94.3 541 47.2 541L0 541Z" fill="#8abe90"></path><path d="M0 454L47.2 456.5C94.3 459 188.7 464 283 465C377.3 466 471.7 463 566 464.8C660.3 466.7 754.7 473.3 848.8 469C943 464.7 1037 449.3 1131.2 448C1225.3 446.7 1319.7 459.3 1414 464.2C1508.3 469 1602.7 466 1697 467.7C1791.3 469.3 1885.7 475.7 1932.8 478.8L1980 482L1980 541L1932.8 541C1885.7 541 1791.3 541 1697 541C1602.7 541 1508.3 541 1414 541C1319.7 541 1225.3 541 1131.2 541C1037 541 943 541 848.8 541C754.7 541 660.3 541 566 541C471.7 541 377.3 541 283 541C188.7 541 94.3 541 47.2 541L0 541Z" fill="#66a36d"></path><path d="M0 481L47.2 483.8C94.3 486.7 188.7 492.3 283 498C377.3 503.7 471.7 509.3 566 506.8C660.3 504.3 754.7 493.7 848.8 490.8C943 488 1037 493 1131.2 497.8C1225.3 502.7 1319.7 507.3 1414 508.5C1508.3 509.7 1602.7 507.3 1697 500.7C1791.3 494 1885.7 483 1932.8 477.5L1980 472L1980 541L1932.8 541C1885.7 541 1791.3 541 1697 541C1602.7 541 1508.3 541 1414 541C1319.7 541 1225.3 541 1131.2 541C1037 541 943 541 848.8 541C754.7 541 660.3 541 566 541C471.7 541 377.3 541 283 541C188.7 541 94.3 541 47.2 541L0 541Z" fill="#41884a"></path></svg>