<svg width="257" height="85" viewBox="0 0 257 85" fill="none" xmlns="http://www.w3.org/2000/svg">
<g opacity="0.9">
<path d="M37.8745 56.1318C45.3009 56.1318 51.3212 50.1425 51.3212 42.7544C51.3212 35.3662 45.3009 29.377 37.8745 29.377C30.448 29.377 24.4277 35.3662 24.4277 42.7544C24.4277 50.1425 30.448 56.1318 37.8745 56.1318Z" stroke="#208444" stroke-width="4" stroke-miterlimit="10"/>
<path d="M66.9858 67.6206C66.8926 66.1828 66.9059 64.7317 66.9858 63.2939C67.0325 62.3597 66.7527 62.0616 65.787 62.0814C62.7967 62.1411 59.8063 62.1013 56.5029 62.1013C56.8492 61.6971 56.9957 61.5116 57.1556 61.3393C61.7377 56.5754 64.2619 50.9501 64.7481 44.3376C65.7737 30.3573 53.8255 16.7678 39.7394 16.039C25.0339 15.277 12.6928 25.759 11.141 40.3158C9.72239 53.6336 19.1664 66.1364 32.3734 68.5614C34.3647 68.9258 36.4027 69.012 38.4207 68.9987C40.4387 68.9855 42.4767 68.8728 44.5014 68.853C46.526 68.8331 48.604 68.853 50.6553 68.853C52.7066 68.853 54.8045 68.853 56.8825 68.853C58.9604 68.853 61.0317 68.853 63.1097 68.8596C63.9688 68.8596 64.8346 68.8596 65.6938 68.8728C66.6861 68.8728 67.0591 68.6608 66.9925 67.6206H66.9858ZM38.0944 62.6777C27.1385 62.7308 18.2739 53.8655 18.254 42.8336C18.234 31.7089 26.9454 22.9166 37.9678 22.9364C48.7239 22.9563 57.4952 31.868 57.4886 42.774C57.4886 53.8589 48.937 62.6247 38.0877 62.6777H38.0944Z" fill="#208444"/>
</g>
<path d="M95.56 51.992H103.496V55H91.432L95.56 51.992ZM78.888 43.448C78.888 41.848 79.1867 40.344 79.784 38.936C80.4027 37.5067 81.256 36.248 82.344 35.16C83.432 34.0507 84.68 33.1867 86.088 32.568C87.5173 31.928 89.0533 31.608 90.696 31.608C92.3173 31.608 93.832 31.928 95.24 32.568C96.6693 33.1867 97.928 34.0507 99.016 35.16C100.125 36.248 100.989 37.5067 101.608 38.936C102.227 40.344 102.536 41.848 102.536 43.448C102.536 45.0907 102.227 46.6267 101.608 48.056C100.989 49.4853 100.125 50.744 99.016 51.832C97.928 52.8987 96.6693 53.7413 95.24 54.36C93.832 54.9573 92.3173 55.256 90.696 55.256C89.0533 55.256 87.5173 54.9573 86.088 54.36C84.68 53.7627 83.432 52.9307 82.344 51.864C81.256 50.7973 80.4027 49.5493 79.784 48.12C79.1867 46.6907 78.888 45.1333 78.888 43.448ZM82.088 43.48C82.088 44.696 82.312 45.8373 82.76 46.904C83.208 47.9493 83.8267 48.8773 84.616 49.688C85.4053 50.4987 86.3227 51.128 87.368 51.576C88.4133 52.024 89.544 52.248 90.76 52.248C91.9547 52.248 93.0747 52.024 94.12 51.576C95.1653 51.128 96.072 50.4987 96.84 49.688C97.608 48.8773 98.216 47.9493 98.664 46.904C99.112 45.8373 99.336 44.6853 99.336 43.448C99.336 42.2533 99.112 41.1227 98.664 40.056C98.216 38.9893 97.5973 38.0613 96.808 37.272C96.0187 36.4613 95.1013 35.832 94.056 35.384C93.0107 34.9147 91.8907 34.68 90.696 34.68C89.48 34.68 88.3493 34.9147 87.304 35.384C86.2587 35.832 85.3413 36.4613 84.552 37.272C83.7627 38.0827 83.1547 39.0213 82.728 40.088C82.3013 41.1547 82.088 42.2853 82.088 43.48ZM112.159 55.512C110.964 55.512 109.972 55.1493 109.183 54.424C108.415 53.6773 108.01 52.7173 107.967 51.544V41.752H110.943V50.488C110.986 51.2133 111.188 51.8 111.551 52.248C111.935 52.696 112.532 52.9307 113.343 52.952C114.09 52.952 114.751 52.7387 115.327 52.312C115.924 51.864 116.404 51.2667 116.767 50.52C117.13 49.752 117.311 48.888 117.311 47.928V41.752H120.287V55H117.567L117.311 51.736L117.471 52.312C117.215 52.9307 116.82 53.4853 116.287 53.976C115.775 54.4453 115.167 54.8187 114.463 55.096C113.759 55.3733 112.991 55.512 112.159 55.512ZM130.94 55.32C129.702 55.32 128.572 55.0533 127.548 54.52C126.545 53.9867 125.745 53.208 125.148 52.184C124.572 51.1387 124.284 49.8693 124.284 48.376C124.284 46.904 124.593 45.6347 125.212 44.568C125.83 43.48 126.652 42.648 127.676 42.072C128.721 41.496 129.862 41.208 131.1 41.208C132.337 41.208 133.382 41.496 134.236 42.072C135.089 42.6267 135.74 43.288 136.188 44.056L135.996 44.568L136.284 41.752H139.036V55H136.06V51.544L136.38 52.312C136.294 52.5253 136.102 52.8027 135.804 53.144C135.526 53.464 135.142 53.7947 134.652 54.136C134.182 54.4773 133.638 54.7653 133.02 55C132.401 55.2133 131.708 55.32 130.94 55.32ZM131.74 52.856C132.486 52.856 133.158 52.7173 133.756 52.44C134.353 52.1627 134.844 51.7787 135.228 51.288C135.633 50.776 135.91 50.168 136.06 49.464V46.872C135.889 46.232 135.59 45.6773 135.164 45.208C134.737 44.7173 134.225 44.344 133.628 44.088C133.03 43.8107 132.369 43.672 131.644 43.672C130.854 43.672 130.129 43.864 129.468 44.248C128.806 44.632 128.273 45.1653 127.868 45.848C127.484 46.5307 127.292 47.3307 127.292 48.248C127.292 49.1013 127.494 49.88 127.9 50.584C128.305 51.288 128.849 51.8427 129.532 52.248C130.214 52.6533 130.95 52.856 131.74 52.856ZM146.842 41.752L147.098 44.984L146.97 44.472C147.396 43.4907 148.09 42.712 149.05 42.136C150.01 41.5387 151.119 41.24 152.378 41.24C153.636 41.24 154.66 41.6133 155.45 42.36C156.26 43.0853 156.676 44.0347 156.698 45.208V55H153.69V46.264C153.668 45.5387 153.455 44.952 153.05 44.504C152.666 44.0347 152.058 43.8 151.226 43.8C150.458 43.8 149.764 44.0133 149.146 44.44C148.527 44.8667 148.036 45.4533 147.674 46.2C147.332 46.9467 147.162 47.8107 147.162 48.792V55H144.186V41.752H146.842ZM163.153 35.928H166.129V41.816H169.777V44.152H166.129V55H163.153V44.152H160.721V41.816H163.153V35.928ZM172.221 48.248C172.221 46.9253 172.531 45.7307 173.149 44.664C173.789 43.5973 174.664 42.7547 175.773 42.136C176.883 41.5173 178.141 41.208 179.549 41.208C181 41.208 182.269 41.5173 183.357 42.136C184.445 42.7547 185.288 43.5973 185.885 44.664C186.483 45.7307 186.781 46.9253 186.781 48.248C186.781 49.5707 186.483 50.776 185.885 51.864C185.288 52.9307 184.435 53.7733 183.325 54.392C182.237 55.0107 180.968 55.32 179.517 55.32C178.109 55.32 176.851 55.032 175.741 54.456C174.653 53.8587 173.789 53.0373 173.149 51.992C172.531 50.9253 172.221 49.6773 172.221 48.248ZM175.197 48.28C175.197 49.1333 175.389 49.912 175.773 50.616C176.157 51.2987 176.669 51.8427 177.309 52.248C177.971 52.6533 178.696 52.856 179.485 52.856C180.317 52.856 181.053 52.6533 181.693 52.248C182.355 51.8427 182.867 51.2987 183.229 50.616C183.592 49.912 183.773 49.1333 183.773 48.28C183.773 47.4267 183.592 46.6587 183.229 45.976C182.867 45.272 182.355 44.7173 181.693 44.312C181.053 43.8853 180.317 43.672 179.485 43.672C178.675 43.672 177.939 43.8853 177.277 44.312C176.637 44.7387 176.125 45.304 175.741 46.008C175.379 46.6907 175.197 47.448 175.197 48.28ZM191.899 55V44.408H189.627V41.752H191.899V36.152C191.899 34.232 192.325 32.76 193.179 31.736C194.053 30.712 195.333 30.2 197.019 30.2C197.467 30.2 197.957 30.264 198.491 30.392C199.045 30.52 199.525 30.7333 199.931 31.032L198.683 33.176C198.491 32.984 198.277 32.856 198.043 32.792C197.808 32.7067 197.573 32.664 197.339 32.664C196.549 32.664 195.941 32.9307 195.515 33.464C195.088 33.9973 194.875 34.904 194.875 36.184V41.752H198.651V44.408H194.875V55H191.899ZM201.211 30.232H204.187V55H201.211V30.232ZM208.221 48.248C208.221 46.9253 208.531 45.7307 209.149 44.664C209.789 43.5973 210.664 42.7547 211.773 42.136C212.883 41.5173 214.141 41.208 215.549 41.208C217 41.208 218.269 41.5173 219.357 42.136C220.445 42.7547 221.288 43.5973 221.885 44.664C222.483 45.7307 222.781 46.9253 222.781 48.248C222.781 49.5707 222.483 50.776 221.885 51.864C221.288 52.9307 220.435 53.7733 219.325 54.392C218.237 55.0107 216.968 55.32 215.517 55.32C214.109 55.32 212.851 55.032 211.741 54.456C210.653 53.8587 209.789 53.0373 209.149 51.992C208.531 50.9253 208.221 49.6773 208.221 48.248ZM211.197 48.28C211.197 49.1333 211.389 49.912 211.773 50.616C212.157 51.2987 212.669 51.8427 213.309 52.248C213.971 52.6533 214.696 52.856 215.485 52.856C216.317 52.856 217.053 52.6533 217.693 52.248C218.355 51.8427 218.867 51.2987 219.229 50.616C219.592 49.912 219.773 49.1333 219.773 48.28C219.773 47.4267 219.592 46.6587 219.229 45.976C218.867 45.272 218.355 44.7173 217.693 44.312C217.053 43.8853 216.317 43.672 215.485 43.672C214.675 43.672 213.939 43.8853 213.277 44.312C212.637 44.7387 212.125 45.304 211.741 46.008C211.379 46.6907 211.197 47.448 211.197 48.28ZM234.885 41.752L238.789 50.68L238.213 50.744L241.861 41.752H244.773L238.693 55.8L234.437 46.712L230.565 55.8L224.421 41.752H227.333L231.461 51.096L230.437 50.904L233.381 44.056L232.325 41.752H234.885Z" fill="#C6C6C6"/>
</svg>
